# xmcd CD database file
#
# Track frame offsets:
#	150
#	13369
#	40101
#	62327
#
# Disc length: 1082 seconds
#
# Revision: 2
# Processed by: cddbd v1.5.2PL0 Copyright (c) Steve Scherf et al.
# Submitted via: CDex 1.51
#
DISCID=2a043804
DTITLE=Sivert Höyem - Moon Landing      cd 2
DYEAR=2009
DGENRE=Rock
TTITLE0=Return To Nothing Special
TTITLE1=Sister Sonic Blue
TTITLE2=Johnny
TTITLE3=The House Of The Rising Sun
EXTD=YEAR: 2009
EXTT0=
EXTT1=
EXTT2=
EXTT3=
PLAYORDER=
